<svg xmlns="http://www.w3.org/2000/svg" version="1.1" xmlns:xlink="http://www.w3.org/1999/xlink" xmlns:svgjs="http://svgjs.com/svgjs" width="1440" height="250" preserveAspectRatio="none" viewBox="0 0 1440 250"><g mask="url(&quot;#SvgjsMask1000&quot;)" fill="none"><rect width="1440" height="250" x="0" y="0" fill="#0e2a47"></rect><path d="M2 250L252 0L567 0L317 250z" fill="url(#SvgjsLinearGradient1001)"></path><path d="M283.6 250L533.6 0L689.6 0L439.6 250z" fill="url(#SvgjsLinearGradient1001)"></path><path d="M491.20000000000005 250L741.2 0L1018.7 0L768.7 250z" fill="url(#SvgjsLinearGradient1001)"></path><path d="M738.8000000000001 250L988.8000000000001 0L1080.3000000000002 0L830.3000000000001 250z" fill="url(#SvgjsLinearGradient1001)"></path><path d="M1414 250L1164 0L1095 0L1345 250z" fill="url(#SvgjsLinearGradient1002)"></path><path d="M1179.4 250L929.4000000000001 0L830.4000000000001 0L1080.4 250z" fill="url(#SvgjsLinearGradient1002)"></path><path d="M920.8 250L670.8 0L361.79999999999995 0L611.8 250z" fill="url(#SvgjsLinearGradient1002)"></path><path d="M716.1999999999999 250L466.19999999999993 0L217.19999999999993 0L467.19999999999993 250z" fill="url(#SvgjsLinearGradient1002)"></path><path d="M1194.4271735531327 250L1440 4.42717355313269L1440 250z" fill="url(#SvgjsLinearGradient1001)"></path><path d="M0 250L245.5728264468673 250L 0 4.42717355313269z" fill="url(#SvgjsLinearGradient1002)"></path></g><defs><mask id="SvgjsMask1000"><rect width="1440" height="250" fill="#ffffff"></rect></mask><linearGradient x1="0%" y1="100%" x2="100%" y2="0%" id="SvgjsLinearGradient1001"><stop stop-color="rgba(15, 70, 185, 0.2)" offset="0"></stop><stop stop-opacity="0" stop-color="rgba(15, 70, 185, 0.2)" offset="0.66"></stop></linearGradient><linearGradient x1="100%" y1="100%" x2="0%" y2="0%" id="SvgjsLinearGradient1002"><stop stop-color="rgba(15, 70, 185, 0.2)" offset="0"></stop><stop stop-opacity="0" stop-color="rgba(15, 70, 185, 0.2)" offset="0.66"></stop></linearGradient></defs></svg>