<?xml version="1.0" standalone="no"?>
<!DOCTYPE svg PUBLIC "-//W3C//DTD SVG 20010904//EN"
 "http://www.w3.org/TR/2001/REC-SVG-20010904/DTD/svg10.dtd">
<svg version="1.0" xmlns="http://www.w3.org/2000/svg"
height="100%" width="100%" viewBox="0 0 1500.000000 500.000000"
 preserveAspectRatio="xMidYMid meet">

<g transform="translate(0.000000,500.000000) scale(0.100000,-0.100000)"
fill="#000000" stroke="none">
<path d="M5535 3635 c-175 -32 -332 -95 -476 -191 -252 -167 -440 -450 -503
-758 -22 -102 -21 -360 0 -464 99 -484 476 -859 953 -948 113 -21 330 -21 445
0 495 93 878 486 962 986 13 80 15 135 11 239 -10 235 -73 429 -200 620 -184
275 -467 459 -792 515 -107 19 -302 19 -400 1z m355 -189 c222 -36 410 -135
565 -297 179 -187 268 -398 281 -664 5 -100 3 -137 -15 -223 -66 -316 -262
-572 -546 -712 -142 -70 -273 -100 -436 -100 -184 0 -298 25 -443 97 -385 191
-602 578 -565 1006 34 381 300 721 664 846 169 58 332 74 495 47z"/>
<path d="M5525 3061 c-47 -22 -89 -64 -104 -104 -7 -19 -11 -193 -11 -508 0
-451 1 -482 19 -517 23 -46 46 -67 94 -87 46 -19 98 -19 145 0 50 21 507 475
533 530 21 46 23 83 8 140 -9 33 -53 83 -247 278 -291 292 -331 317 -437 268z
m293 -394 l212 -212 -215 -215 -215 -215 0 428 c0 235 1 427 3 427 1 0 98 -96
215 -213z"/>
</g>
</svg>
