<svg xmlns="http://www.w3.org/2000/svg" width="73.029" height="64.915" viewBox="0 0 73.029 64.915">
    <defs>
        <style>.a{fill:#fff;}</style>
    </defs>
    <path class="a"
          d="M26.372,0a8.09,8.09,0,0,0-7.835,6.111c-.1,0-.177-.025-.279-.025A8.122,8.122,0,0,0,10.143,14.2a7.477,7.477,0,0,0,.216,1.775A10.055,10.055,0,0,0,5.11,29.782,10.105,10.105,0,0,0,6.263,47.913,9.291,9.291,0,0,0,6.086,49.7a9.123,9.123,0,0,0,9.129,9.129,8.6,8.6,0,0,0,1.521-.152,9.107,9.107,0,0,0,17.75-2.891V8.114A8.122,8.122,0,0,0,26.372,0ZM73.029,38.543a10.09,10.09,0,0,0-5.11-8.761,9.979,9.979,0,0,0,1.052-4.425,10.143,10.143,0,0,0-6.3-9.382,8.039,8.039,0,0,0-7.9-9.889c-.1,0-.19.025-.279.025a8.1,8.1,0,0,0-15.95,2V55.786a9.107,9.107,0,0,0,17.75,2.891,8.6,8.6,0,0,0,1.521.152A9.123,9.123,0,0,0,66.944,49.7a9.291,9.291,0,0,0-.177-1.788A10.143,10.143,0,0,0,73.029,38.543Z"/>
</svg>