<svg id="visual" viewBox="0 0 900 600" width="900" height="600" xmlns="http://www.w3.org/2000/svg" xmlns:xlink="http://www.w3.org/1999/xlink" version="1.1"><path d="M0 103L82 103L82 91L164 91L164 55L245 55L245 97L327 97L327 85L409 85L409 61L491 61L491 91L573 91L573 49L655 49L655 103L736 103L736 55L818 55L818 97L900 97L900 67L900 0L900 0L818 0L818 0L736 0L736 0L655 0L655 0L573 0L573 0L491 0L491 0L409 0L409 0L327 0L327 0L245 0L245 0L164 0L164 0L82 0L82 0L0 0Z" fill="#f7f000"></path><path d="M0 355L82 355L82 175L164 175L164 295L245 295L245 253L327 253L327 313L409 313L409 265L491 265L491 253L573 253L573 181L655 181L655 247L736 247L736 163L818 163L818 313L900 313L900 361L900 65L900 95L818 95L818 53L736 53L736 101L655 101L655 47L573 47L573 89L491 89L491 59L409 59L409 83L327 83L327 95L245 95L245 53L164 53L164 89L82 89L82 101L0 101Z" fill="#ffb40a"></path><path d="M0 451L82 451L82 223L164 223L164 379L245 379L245 331L327 331L327 367L409 367L409 391L491 391L491 349L573 349L573 301L655 301L655 283L736 283L736 247L818 247L818 409L900 409L900 439L900 359L900 311L818 311L818 161L736 161L736 245L655 245L655 179L573 179L573 251L491 251L491 263L409 263L409 311L327 311L327 251L245 251L245 293L164 293L164 173L82 173L82 353L0 353Z" fill="#ff7a36"></path><path d="M0 547L82 547L82 445L164 445L164 523L245 523L245 553L327 553L327 541L409 541L409 523L491 523L491 505L573 505L573 529L655 529L655 493L736 493L736 457L818 457L818 541L900 541L900 547L900 437L900 407L818 407L818 245L736 245L736 281L655 281L655 299L573 299L573 347L491 347L491 389L409 389L409 365L327 365L327 329L245 329L245 377L164 377L164 221L82 221L82 449L0 449Z" fill="#e14750"></path><path d="M0 601L82 601L82 601L164 601L164 601L245 601L245 601L327 601L327 601L409 601L409 601L491 601L491 601L573 601L573 601L655 601L655 601L736 601L736 601L818 601L818 601L900 601L900 601L900 545L900 539L818 539L818 455L736 455L736 491L655 491L655 527L573 527L573 503L491 503L491 521L409 521L409 539L327 539L327 551L245 551L245 521L164 521L164 443L82 443L82 545L0 545Z" fill="#b0235f"></path></svg>