<svg xmlns="http://www.w3.org/2000/svg" width="94.404" height="75.517" viewBox="0 0 94.404 75.517">
    <defs>
        <style>.a{fill:#fff;}</style>
    </defs>
    <path class="a"
          d="M71.985,28.32H49.564v8.26a10.62,10.62,0,1,1-21.241,0V18.643L18.75,24.4a9.42,9.42,0,0,0-4.587,8.083v6.977l-11.8,6.815A4.709,4.709,0,0,0,.636,52.717l11.8,20.444a4.722,4.722,0,0,0,6.446,1.726l15.252-8.806H54.284a9.449,9.449,0,0,0,9.44-9.44h2.36a4.715,4.715,0,0,0,4.72-4.72V42.48h1.18a3.532,3.532,0,0,0,3.54-3.54V31.86A3.532,3.532,0,0,0,71.985,28.32ZM93.772,22.8,81.971,2.358A4.722,4.722,0,0,0,75.525.633L60.273,9.439H45.2a9.511,9.511,0,0,0-5,1.431l-4.941,3.083a4.688,4.688,0,0,0-2.213,4V36.58a5.9,5.9,0,1,0,11.8,0V23.6H71.985a8.266,8.266,0,0,1,8.26,8.26v4.2l11.8-6.815A4.725,4.725,0,0,0,93.772,22.8Z"
          transform="translate(0.002 -0.001)"/>
</svg>