<svg xmlns="http://www.w3.org/2000/svg" width="68.606" height="54.885" viewBox="0 0 68.606 54.885">
    <defs>
        <style>.a{fill:#fff;}</style>
    </defs>
    <path class="a"
          d="M0,27.442V41.164a3.427,3.427,0,0,0,3.43,3.43h3.43V24.012H3.43A3.427,3.427,0,0,0,0,27.442ZM49.739,10.291H37.733V3.43a3.43,3.43,0,0,0-6.861,0v6.861H18.867a8.573,8.573,0,0,0-8.576,8.576V48.024a6.867,6.867,0,0,0,6.861,6.861h34.3a6.867,6.867,0,0,0,6.861-6.861V18.867A8.573,8.573,0,0,0,49.739,10.291Zm-22.3,34.3H20.582v-3.43h6.861ZM24.012,31.73A4.288,4.288,0,1,1,28.3,27.442,4.287,4.287,0,0,1,24.012,31.73ZM37.733,44.594H30.873v-3.43h6.861Zm10.291,0H41.164v-3.43h6.861ZM44.594,31.73a4.288,4.288,0,1,1,4.288-4.288A4.287,4.287,0,0,1,44.594,31.73Zm20.582-7.718h-3.43V44.594h3.43a3.427,3.427,0,0,0,3.43-3.43V27.442A3.427,3.427,0,0,0,65.176,24.012Z"/>
</svg>